<svg width="23" height="18" viewBox="0 0 23 18" fill="none" xmlns="http://www.w3.org/2000/svg">
<g clip-path="url(#clip0_115_899)">
<path d="M11.1996 0.078125C9.00957 0.078125 6.90928 0.948095 5.36073 2.49665C3.81217 4.04521 2.9422 6.1455 2.9422 8.33549C2.9422 10.5255 3.81217 12.6258 5.36073 14.1743C6.90928 15.7229 9.00957 16.5929 11.1996 16.5929C13.3896 16.5929 15.4898 15.7229 17.0384 14.1743C18.587 12.6258 19.4569 10.5255 19.4569 8.33549C19.4569 6.1455 18.587 4.04521 17.0384 2.49665C15.4898 0.948095 13.3896 0.078125 11.1996 0.078125ZM14.9866 11.9873C14.9514 12.0451 14.9051 12.0953 14.8504 12.1352C14.7957 12.175 14.7337 12.2037 14.6679 12.2195C14.6021 12.2353 14.5339 12.238 14.4671 12.2274C14.4002 12.2168 14.3362 12.1931 14.2785 12.1576C12.3391 10.9737 9.89903 10.7054 7.02443 11.3628C6.89126 11.3932 6.75146 11.3695 6.6358 11.2968C6.52014 11.2241 6.4381 11.1084 6.40771 10.9753C6.37733 10.8421 6.40109 10.7023 6.47378 10.5866C6.54646 10.471 6.66211 10.3889 6.79529 10.3585C9.94135 9.64015 12.6394 9.94877 14.8153 11.2792C14.9317 11.3506 15.0151 11.4652 15.0472 11.5979C15.0793 11.7306 15.0575 11.8706 14.9866 11.9873ZM15.9971 9.73924C15.9077 9.88469 15.7642 9.98868 15.5981 10.0284C15.432 10.068 15.257 10.0402 15.1115 9.95084C12.8923 8.58734 9.50887 8.19202 6.88303 8.98885C6.7232 9.02683 6.5549 9.00241 6.41247 8.92056C6.27003 8.83871 6.16419 8.70561 6.11653 8.5484C6.06886 8.39119 6.08297 8.22171 6.15597 8.07455C6.22898 7.92738 6.35537 7.81361 6.50938 7.75644C9.50784 6.8471 13.236 7.28784 15.7845 8.85364C15.9301 8.94289 16.0343 9.08633 16.0742 9.25241C16.114 9.41849 16.0863 9.5936 15.9971 9.73924ZM16.0838 7.39828C13.4229 5.81699 9.03201 5.67146 6.4908 6.44249C6.2948 6.50189 6.08322 6.481 5.90262 6.38441C5.72202 6.28782 5.58719 6.12344 5.52779 5.92744C5.46838 5.73143 5.48928 5.51986 5.58587 5.33926C5.68246 5.15866 5.84684 5.02382 6.04284 4.96442C8.95872 4.07985 13.8079 4.25016 16.8724 6.06884C17.0487 6.17341 17.1762 6.34374 17.2269 6.54234C17.2776 6.74094 17.2474 6.95156 17.1428 7.12785C17.0382 7.30414 16.8679 7.43168 16.6693 7.48239C16.4707 7.53311 16.2601 7.50285 16.0838 7.39828Z" fill="black"/>
</g>
<defs>
<clipPath id="clip0_115_899">
<rect width="22" height="17.5469" fill="white" transform="translate(0.715637 0.078125)"/>
</clipPath>
</defs>
</svg>
