<svg width="23" height="19" viewBox="0 0 23 19" fill="none" xmlns="http://www.w3.org/2000/svg">
<g clip-path="url(#clip0_115_894)">
<path d="M11.428 2.59448H11.5198C12.3683 2.59758 16.6673 2.62854 17.8264 2.94026C18.1768 3.03539 18.4961 3.22083 18.7524 3.47803C19.0087 3.73523 19.193 4.05519 19.2869 4.40594C19.3912 4.79817 19.4645 5.31735 19.514 5.85304L19.5243 5.96039L19.547 6.22875L19.5553 6.3361C19.6224 7.2795 19.6306 8.16304 19.6317 8.35606V8.43347C19.6306 8.63371 19.6214 9.57712 19.547 10.5597L19.5388 10.6681L19.5295 10.7755C19.4779 11.3659 19.4015 11.9521 19.2869 12.3836C19.1933 12.7345 19.0091 13.0546 18.7528 13.3118C18.4964 13.5691 18.177 13.7544 17.8264 13.8493C16.6291 14.1713 12.0783 14.194 11.4476 14.195H11.301C10.9821 14.195 9.66297 14.1889 8.27987 14.1414L8.1044 14.1352L8.0146 14.1311L7.8381 14.1238L7.6616 14.1166C6.51589 14.066 5.42488 13.9845 4.92222 13.8482C4.57178 13.7535 4.2524 13.5683 3.99607 13.3112C3.73974 13.0542 3.55546 12.7343 3.46169 12.3836C3.34712 11.9532 3.27074 11.3659 3.21913 10.7755L3.21088 10.6671L3.20262 10.5597C3.15168 9.86034 3.12345 9.15947 3.11798 8.45824L3.11798 8.33129C3.12005 8.10937 3.1283 7.34247 3.18404 6.49609L3.19127 6.38977L3.19436 6.3361L3.20262 6.22875L3.22533 5.96039L3.23565 5.85304C3.28519 5.31735 3.35848 4.79713 3.46273 4.40594C3.55634 4.05505 3.74055 3.73494 3.99689 3.47769C4.25323 3.22045 4.57269 3.03511 4.92325 2.94026C5.42591 2.80608 6.51692 2.7235 7.66263 2.6719L7.8381 2.66467L8.01563 2.65848L8.1044 2.65538L8.2809 2.64816C9.26322 2.61654 10.2459 2.599 11.2288 2.59551H11.428V2.59448ZM9.72387 5.90775V10.8807L14.0146 8.39528L9.72387 5.90775Z" fill="black"/>
</g>
<defs>
<clipPath id="clip0_115_894">
<rect width="22" height="17.5469" fill="white" transform="translate(0.891418 0.53125)"/>
</clipPath>
</defs>
</svg>
