<svg width="43" height="42" viewBox="0 0 43 42" fill="none" xmlns="http://www.w3.org/2000/svg">
<path d="M22.7525 31.5H28.0025V36.75H22.7525V31.5Z" fill="black"/>
<path d="M31.94 31.5H37.19V36.75H31.94V31.5Z" fill="black"/>
<path d="M22.7525 22.3125H28.0025V27.5625H22.7525V22.3125Z" fill="black"/>
<path d="M31.94 22.3125H37.19V27.5625H31.94V22.3125Z" fill="black"/>
<path d="M37.19 14.4375H29.315V9.18747C29.315 6.95622 27.6088 5.24997 25.3775 5.24997H17.5025C15.2713 5.24997 13.565 6.95622 13.565 9.18747V14.4375H5.69C4.9025 14.4375 4.3775 14.9625 4.3775 15.75V16.0125L6.87125 31.8937C7.0025 33.2062 8.18375 34.125 9.49625 34.125H20.1275V31.5H9.49625L7.265 17.0625H37.19V14.4375ZM16.19 9.18747C16.19 8.39997 16.715 7.87497 17.5025 7.87497H25.3775C26.165 7.87497 26.69 8.39997 26.69 9.18747V14.4375H16.19V9.18747Z" fill="black"/>
</svg>
