<svg width="30" height="26" viewBox="0 0 30 26" fill="none" xmlns="http://www.w3.org/2000/svg">
<path d="M26.4627 1.24086C22.6311 -1.4913 17.8996 1.7392 15.3452 4.86601C12.7907 1.7392 8.05925 -1.50648 4.22761 1.24086C2.19568 2.69802 0.918462 5.15697 0.831379 7.75252C0.628186 13.6419 5.92605 17.0054 13.5458 24.2456C14.6488 25.2929 16.3466 25.2929 17.4497 24.2304C25.0694 17.0054 30.0476 13.6267 29.859 7.73734C29.7719 5.15697 28.4947 2.69802 26.4627 1.24086ZM15.4903 23.341L15.3452 23.4928L15.2 23.341C8.29147 16.799 3.73414 12.4731 3.73414 8.08645C3.73414 5.05071 5.91121 2.77391 8.81397 2.77391C11.0491 2.77391 14.7211 5.65786 15.4903 7.73734C16.245 5.65786 19.6413 2.77391 21.8764 2.77391C24.7791 2.77391 26.9562 5.05071 26.9562 8.08645C26.9562 12.4731 22.3989 16.799 15.4903 23.341Z" fill="white"/>
</svg>
