<svg width="38" height="38" viewBox="0 0 38 38" fill="none" xmlns="http://www.w3.org/2000/svg">
<path d="M18.7853 9.82736C17.6514 9.82736 16.543 10.1636 15.6002 10.7935C14.6575 11.4235 13.9227 12.3188 13.4888 13.3664C13.0549 14.4139 12.9413 15.5666 13.1625 16.6787C13.3837 17.7908 13.9297 18.8123 14.7315 19.614C15.5333 20.4158 16.5548 20.9618 17.6668 21.183C18.7789 21.4042 19.9316 21.2907 20.9792 20.8568C22.0267 20.4229 22.9221 19.6881 23.552 18.7453C24.1819 17.8025 24.5182 16.6941 24.5182 15.5603C24.5182 14.0398 23.9142 12.5816 22.839 11.5065C21.7639 10.4314 20.3057 9.82736 18.7853 9.82736Z" fill="black"/>
<path d="M18.7853 2.94789C15.6105 2.94789 12.507 3.88933 9.8672 5.65316C7.22744 7.41699 5.17 9.92399 3.95506 12.8571C2.74011 15.7903 2.42222 19.0178 3.0416 22.1316C3.66097 25.2454 5.18979 28.1056 7.43472 30.3506C9.67965 32.5955 12.5399 34.1243 15.6537 34.7437C18.7675 35.3631 21.995 35.0452 24.9282 33.8302C27.8613 32.6153 30.3683 30.5578 32.1321 27.9181C33.896 25.2783 34.8374 22.1748 34.8374 19C34.8326 14.7442 33.1399 10.6641 30.1305 7.65474C27.1212 4.64543 23.0411 2.95269 18.7853 2.94789ZM27.9493 29.2342C27.9265 27.7301 27.3137 26.2953 26.243 25.2388C25.1722 24.1824 23.7292 23.5889 22.225 23.5863H15.3455C13.8413 23.5889 12.3984 24.1824 11.3276 25.2388C10.2568 26.2953 9.64403 27.7301 9.62124 29.2342C7.54199 27.3776 6.07571 24.9332 5.41654 22.2247C4.75738 19.5163 4.93643 16.6715 5.92998 14.067C6.92354 11.4626 8.68474 9.22136 10.9804 7.64012C13.276 6.05887 15.9978 5.21219 18.7853 5.21219C21.5728 5.21219 24.2946 6.05887 26.5902 7.64012C28.8858 9.22136 30.647 11.4626 31.6406 14.067C32.6341 16.6715 32.8132 19.5163 32.154 22.2247C31.4949 24.9332 30.0286 27.3776 27.9493 29.2342Z" fill="black"/>
</svg>
