<svg width="89" height="44" viewBox="0 0 89 44" fill="none" xmlns="http://www.w3.org/2000/svg">
<path d="M1.75294 10.5348H25.3544M12.2425 21.6878H25.3544M5.68652 32.8407H25.3544" stroke="#FF9900" stroke-width="3" stroke-linecap="round"/>
<path d="M47.1549 41.7226C52.73 41.7226 57.2494 36.5969 57.2494 30.2741C57.2494 23.9513 52.73 18.8256 47.1549 18.8256C41.5799 18.8256 37.0604 23.9513 37.0604 30.2741C37.0604 36.5969 41.5799 41.7226 47.1549 41.7226Z" stroke="#FF9900" stroke-width="2.70651" stroke-linecap="round" stroke-linejoin="round"/>
<path d="M77.4384 41.7226C83.0135 41.7226 87.533 36.5969 87.533 30.2741C87.533 23.9513 83.0135 18.8256 77.4384 18.8256C71.8634 18.8256 67.3439 23.9513 67.3439 30.2741C67.3439 36.5969 71.8634 41.7226 77.4384 41.7226Z" stroke="#FF9900" stroke-width="2.70651" stroke-linecap="round" stroke-linejoin="round"/>
<path d="M47.1549 30.2741L52.2021 10.2393H71.1293" stroke="#FF9900" stroke-width="2.70651" stroke-linecap="round" stroke-linejoin="round"/>
<path d="M47.1549 1.65295H54.7257" stroke="#FF9900" stroke-width="2.70651" stroke-linecap="round" stroke-linejoin="round"/>
<path d="M77.4385 30.2742L69.8676 1.65295H79.9621" stroke="#FF9900" stroke-width="2.70651" stroke-linecap="round" stroke-linejoin="round"/>
<path d="M79.9621 1.65295H81.2239C83.3144 1.65295 85.0093 3.57507 85.0093 5.94613C85.0093 8.3172 83.3144 10.2393 81.2239 10.2393H79.9621" stroke="#FF9900" stroke-width="2.70651" stroke-linecap="round" stroke-linejoin="round"/>
</svg>
