<svg width="10" height="13" viewBox="0 0 10 13" fill="none" xmlns="http://www.w3.org/2000/svg">
<path d="M8.49999 4.66634H7.91666V3.49967C7.91666 1.88967 6.60999 0.583008 4.99999 0.583008C3.38999 0.583008 2.08333 1.88967 2.08333 3.49967V4.66634H1.49999C0.858328 4.66634 0.333328 5.19134 0.333328 5.83301V11.6663C0.333328 12.308 0.858328 12.833 1.49999 12.833H8.49999C9.14166 12.833 9.66666 12.308 9.66666 11.6663V5.83301C9.66666 5.19134 9.14166 4.66634 8.49999 4.66634ZM4.99999 9.91634C4.35833 9.91634 3.83333 9.39134 3.83333 8.74967C3.83333 8.10801 4.35833 7.58301 4.99999 7.58301C5.64166 7.58301 6.16666 8.10801 6.16666 8.74967C6.16666 9.39134 5.64166 9.91634 4.99999 9.91634ZM3.24999 4.66634V3.49967C3.24999 2.53134 4.03166 1.74967 4.99999 1.74967C5.96833 1.74967 6.74999 2.53134 6.74999 3.49967V4.66634H3.24999Z" fill="#C8C8C8"/>
</svg>
