<svg width="23" height="19" viewBox="0 0 23 19" fill="none" xmlns="http://www.w3.org/2000/svg">
<g clip-path="url(#clip0_115_887)">
<path d="M13.6629 2.98438H6.35171C4.33278 2.98438 2.69611 4.62104 2.69611 6.63998V13.9512C2.69611 15.9701 4.33278 17.6068 6.35171 17.6068H13.6629C15.6819 17.6068 17.3185 15.9701 17.3185 13.9512V6.63998C17.3185 4.62104 15.6819 2.98438 13.6629 2.98438Z" stroke="black" stroke-width="1.46224"/>
<path d="M14.6206 9.29727C14.7108 9.90574 14.6069 10.5272 14.3236 11.0732C14.0403 11.6192 13.592 12.0619 13.0426 12.3385C12.4931 12.615 11.8704 12.7113 11.2631 12.6136C10.6558 12.5159 10.0948 12.2291 9.65982 11.7942C9.22486 11.3592 8.93812 10.7982 8.8404 10.1909C8.74267 9.58354 8.83893 8.96088 9.11549 8.41143C9.39204 7.86197 9.83481 7.41371 10.3808 7.13041C10.9268 6.8471 11.5482 6.74316 12.1567 6.83339C12.7774 6.92543 13.352 7.21465 13.7957 7.65832C14.2393 8.102 14.5286 8.67661 14.6206 9.29727Z" stroke="black" stroke-width="1.46224"/>
<path d="M15.7173 5.73669H15.7246" stroke="black" stroke-width="1.46224"/>
</g>
<defs>
<clipPath id="clip0_115_887">
<rect width="22" height="17.5469" fill="white" transform="translate(0.696106 0.984375)"/>
</clipPath>
</defs>
</svg>
