<svg width="65" height="65" viewBox="0 0 65 65" fill="none" xmlns="http://www.w3.org/2000/svg">
<path d="M40.397 12.3101C39.2505 12.3194 38.3633 13.413 37.9739 14.6361C37.1628 17.1839 35.0193 19.0132 32.4914 19.0337C29.9634 19.0542 27.7971 17.2598 26.9539 14.7254C26.5492 13.5088 25.6483 12.4297 24.5018 12.439L22.7821 12.4529C21.6355 12.4622 20.7127 13.5239 20.721 14.8241L20.9431 50.0706C20.9513 51.3708 21.8874 52.4174 23.0339 52.4081L24.7537 52.3942C25.9001 52.3849 26.7874 51.2913 27.1767 50.0683C27.9879 47.5203 30.1312 45.691 32.6593 45.6705C35.1873 45.65 37.3535 47.4444 38.1966 49.979C38.6014 51.1956 39.5023 52.2746 40.6488 52.2653L42.3686 52.2513C43.515 52.2421 44.4379 51.1804 44.4297 49.8802L44.2075 14.6337C44.1994 13.3335 43.2633 12.2869 42.1167 12.2962L40.397 12.3101Z" stroke="#FF9900" stroke-width="2.71" stroke-linecap="round" stroke-linejoin="round"/>
</svg>
