<svg width="23" height="18" viewBox="0 0 23 18" fill="none" xmlns="http://www.w3.org/2000/svg">
<g clip-path="url(#clip0_115_882)">
<path d="M12.4075 0.4375H14.4512C14.5998 1.1755 15.0086 2.10652 15.7259 3.03031C16.4278 3.93553 17.3588 4.56618 18.6005 4.56618V6.63052C16.7911 6.63052 15.4318 5.79034 14.4719 4.74268V11.7914C14.4719 12.8121 14.1692 13.8099 13.6021 14.6586C13.035 15.5073 12.229 16.1688 11.286 16.5594C10.343 16.95 9.30528 17.0522 8.30417 16.8531C7.30306 16.6539 6.38349 16.1624 5.66173 15.4406C4.93997 14.7189 4.44845 13.7993 4.24931 12.7982C4.05018 11.7971 4.15238 10.7594 4.543 9.8164C4.93361 8.87338 5.59509 8.06737 6.44379 7.50028C7.29248 6.9332 8.29028 6.63052 9.311 6.63052V8.69486C8.69857 8.69486 8.09989 8.87647 7.59067 9.21672C7.08145 9.55697 6.68457 10.0406 6.4502 10.6064C6.21583 11.1722 6.15451 11.7948 6.27399 12.3955C6.39347 12.9961 6.68838 13.5479 7.12144 13.9809C7.55449 14.414 8.10624 14.7089 8.7069 14.8284C9.30757 14.9479 9.93017 14.8865 10.496 14.6522C11.0618 14.4178 11.5454 14.0209 11.8857 13.5117C12.2259 13.0025 12.4075 12.4038 12.4075 11.7914V0.4375Z" fill="black"/>
</g>
<defs>
<clipPath id="clip0_115_882">
<rect width="22" height="17.5469" fill="white" transform="translate(0.891418 0.4375)"/>
</clipPath>
</defs>
</svg>
